<?xml version="1.0" encoding="UTF-8"?>
<svg xmlns="http://www.w3.org/2000/svg" xmlns:xlink="http://www.w3.org/1999/xlink" width="118px" height="40px" viewBox="0 0 117 40" version="1.1">
<defs>
<linearGradient id="linear0" gradientUnits="userSpaceOnUse" x1="204.9" y1="70.1" x2="268.34" y2="70.1" gradientTransform="matrix(0.295104,0,0,0.295945,0,0.0118714)">
<stop offset="0.32" style="stop-color:rgb(83.529412%,79.607843%,90.196078%);stop-opacity:1;"/>
<stop offset="0.43" style="stop-color:rgb(85.098039%,82.745098%,92.156863%);stop-opacity:1;"/>
<stop offset="0.65" style="stop-color:rgb(86.27451%,86.666667%,94.117647%);stop-opacity:1;"/>
<stop offset="0.95" style="stop-color:rgb(86.27451%,87.843137%,94.901961%);stop-opacity:1;"/>
</linearGradient>
<linearGradient id="linear1" gradientUnits="userSpaceOnUse" x1="-0.9" y1="569.88" x2="53.55" y2="624.32" gradientTransform="matrix(0.295104,0,0,-0.295945,0,188.537746)">
<stop offset="0.32" style="stop-color:rgb(65.490196%,60.392157%,79.607843%);stop-opacity:1;"/>
<stop offset="0.33" style="stop-color:rgb(65.490196%,60.392157%,79.607843%);stop-opacity:1;"/>
<stop offset="0.46" style="stop-color:rgb(69.803922%,69.803922%,85.490196%);stop-opacity:1;"/>
<stop offset="0.61" style="stop-color:rgb(71.372549%,76.862745%,89.803922%);stop-opacity:1;"/>
<stop offset="0.78" style="stop-color:rgb(71.764706%,80.392157%,88.627451%);stop-opacity:1;"/>
<stop offset="1" style="stop-color:rgb(71.764706%,81.568627%,87.843137%);stop-opacity:1;"/>
</linearGradient>
<linearGradient id="linear2" gradientUnits="userSpaceOnUse" x1="373.58" y1="569.88" x2="428.02" y2="624.32" gradientTransform="matrix(-0.295104,-0.000000000000000036,0.000000000000000036,-0.295945,134.614775,188.537746)">
<stop offset="0.32" style="stop-color:rgb(70.196078%,86.27451%,96.470588%);stop-opacity:1;"/>
<stop offset="0.44" style="stop-color:rgb(77.254902%,89.411765%,95.686275%);stop-opacity:1;"/>
<stop offset="0.6" style="stop-color:rgb(83.529412%,91.764706%,95.686275%);stop-opacity:1;"/>
<stop offset="0.77" style="stop-color:rgb(87.058824%,93.72549%,95.294118%);stop-opacity:1;"/>
<stop offset="1" style="stop-color:rgb(88.235294%,94.117647%,95.294118%);stop-opacity:1;"/>
</linearGradient>
<linearGradient id="linear3" gradientUnits="userSpaceOnUse" x1="17.97" y1="565.82" x2="59.03" y2="565.82" gradientTransform="matrix(0.295104,0,0,-0.295945,0,188.537746)">
<stop offset="0.32" style="stop-color:rgb(83.529412%,79.607843%,90.196078%);stop-opacity:1;"/>
<stop offset="0.43" style="stop-color:rgb(85.098039%,82.745098%,92.156863%);stop-opacity:1;"/>
<stop offset="0.65" style="stop-color:rgb(86.27451%,86.666667%,94.117647%);stop-opacity:1;"/>
<stop offset="0.95" style="stop-color:rgb(86.27451%,87.843137%,94.901961%);stop-opacity:1;"/>
</linearGradient>
<linearGradient id="linear4" gradientUnits="userSpaceOnUse" x1="545.29" y1="565.82" x2="586.36" y2="565.82" gradientTransform="matrix(-0.295104,-0.000000000000000036,0.000000000000000036,-0.295945,179.721467,188.537746)">
<stop offset="0.32" style="stop-color:rgb(92.54902%,94.901961%,94.901961%);stop-opacity:1;"/>
<stop offset="0.37" style="stop-color:rgb(93.333333%,95.686275%,95.294118%);stop-opacity:1;"/>
<stop offset="0.62" style="stop-color:rgb(97.254902%,98.431373%,96.862745%);stop-opacity:1;"/>
<stop offset="0.95" style="stop-color:rgb(98.823529%,99.215686%,97.254902%);stop-opacity:1;"/>
</linearGradient>
<linearGradient id="linear5" gradientUnits="userSpaceOnUse" x1="0" y1="531.55" x2="40.84" y2="531.55" gradientTransform="matrix(0.295104,0,0,-0.295945,0,188.537746)">
<stop offset="0.32" style="stop-color:rgb(44.313725%,53.333333%,76.862745%);stop-opacity:1;"/>
<stop offset="0.33" style="stop-color:rgb(44.313725%,53.333333%,76.862745%);stop-opacity:1;"/>
<stop offset="0.5" style="stop-color:rgb(41.960784%,49.411765%,74.117647%);stop-opacity:1;"/>
<stop offset="0.7" style="stop-color:rgb(40%,47.45098%,72.941176%);stop-opacity:1;"/>
<stop offset="0.95" style="stop-color:rgb(39.607843%,47.058824%,72.54902%);stop-opacity:1;"/>
</linearGradient>
<linearGradient id="linear6" gradientUnits="userSpaceOnUse" x1="765.62" y1="531.55" x2="806.47" y2="531.55" gradientTransform="matrix(-0.295104,-0.000000000000000036,0.000000000000000036,-0.295945,250.044821,188.537746)">
<stop offset="0.32" style="stop-color:rgb(76.862745%,76.470588%,89.019608%);stop-opacity:1;"/>
<stop offset="0.54" style="stop-color:rgb(78.823529%,78.823529%,90.196078%);stop-opacity:1;"/>
<stop offset="0.95" style="stop-color:rgb(79.215686%,80%,90.980392%);stop-opacity:1;"/>
</linearGradient>
<linearGradient id="linear7" gradientUnits="userSpaceOnUse" x1="16.74" y1="594.95" x2="21.35" y2="603.88" gradientTransform="matrix(0.295104,0,0,-0.295945,0,188.537746)">
<stop offset="0" style="stop-color:rgb(44.705882%,54.117647%,77.254902%);stop-opacity:1;"/>
<stop offset="0.01" style="stop-color:rgb(46.27451%,55.294118%,78.039216%);stop-opacity:1;"/>
<stop offset="0.06" style="stop-color:rgb(47.058824%,56.078431%,78.431373%);stop-opacity:1;"/>
<stop offset="0.1" style="stop-color:rgb(47.843137%,56.862745%,78.823529%);stop-opacity:1;"/>
<stop offset="0.26" style="stop-color:rgb(54.117647%,61.176471%,81.568627%);stop-opacity:1;"/>
<stop offset="0.47" style="stop-color:rgb(60.784314%,66.27451%,83.921569%);stop-opacity:1;"/>
<stop offset="0.69" style="stop-color:rgb(68.627451%,72.156863%,87.058824%);stop-opacity:1;"/>
<stop offset="1" style="stop-color:rgb(78.039216%,79.215686%,90.588235%);stop-opacity:1;"/>
</linearGradient>
<radialGradient id="radial0" gradientUnits="userSpaceOnUse" cx="-344.6" cy="204.73" fx="-344.6" fy="204.73" r="1.09" gradientTransform="matrix(0.219305,0.198026,0.197463,-0.21993,41.471007,123.631078)">
<stop offset="0" style="stop-color:rgb(85.882353%,86.27451%,94.117647%);stop-opacity:1;"/>
<stop offset="0" style="stop-color:rgb(85.882353%,86.27451%,94.117647%);stop-opacity:1;"/>
<stop offset="0.06" style="stop-color:rgb(85.882353%,86.27451%,94.117647%);stop-opacity:1;"/>
<stop offset="0.1" style="stop-color:rgb(85.882353%,86.27451%,94.117647%);stop-opacity:1;"/>
<stop offset="0.47" style="stop-color:rgb(85.882353%,86.27451%,94.117647%);stop-opacity:1;"/>
<stop offset="1" style="stop-color:rgb(85.882353%,86.27451%,94.117647%);stop-opacity:1;"/>
</radialGradient>
<linearGradient id="linear8" gradientUnits="userSpaceOnUse" x1="18.87" y1="555.08" x2="23.47" y2="564.01" gradientTransform="matrix(0.295104,0,0,-0.295945,0,188.537746)">
<stop offset="0" style="stop-color:rgb(44.705882%,54.117647%,77.254902%);stop-opacity:1;"/>
<stop offset="0.01" style="stop-color:rgb(46.27451%,55.294118%,78.039216%);stop-opacity:1;"/>
<stop offset="0.06" style="stop-color:rgb(47.058824%,56.078431%,78.431373%);stop-opacity:1;"/>
<stop offset="0.1" style="stop-color:rgb(47.843137%,56.862745%,78.823529%);stop-opacity:1;"/>
<stop offset="0.26" style="stop-color:rgb(54.117647%,61.176471%,81.568627%);stop-opacity:1;"/>
<stop offset="0.47" style="stop-color:rgb(60.784314%,66.27451%,83.921569%);stop-opacity:1;"/>
<stop offset="0.69" style="stop-color:rgb(68.627451%,72.156863%,87.058824%);stop-opacity:1;"/>
<stop offset="1" style="stop-color:rgb(78.039216%,79.215686%,90.588235%);stop-opacity:1;"/>
</linearGradient>
<radialGradient id="radial1" gradientUnits="userSpaceOnUse" cx="-316.35" cy="176.52" fx="-316.35" fy="176.52" r="1.09" gradientTransform="matrix(0.219305,0.198026,0.197463,-0.21993,41.471007,123.631078)">
<stop offset="0" style="stop-color:rgb(85.882353%,86.27451%,94.117647%);stop-opacity:1;"/>
<stop offset="0" style="stop-color:rgb(85.882353%,86.27451%,94.117647%);stop-opacity:1;"/>
<stop offset="0.06" style="stop-color:rgb(85.882353%,86.27451%,94.117647%);stop-opacity:1;"/>
<stop offset="0.1" style="stop-color:rgb(85.882353%,86.27451%,94.117647%);stop-opacity:1;"/>
<stop offset="0.47" style="stop-color:rgb(85.882353%,86.27451%,94.117647%);stop-opacity:1;"/>
<stop offset="1" style="stop-color:rgb(85.882353%,86.27451%,94.117647%);stop-opacity:1;"/>
</radialGradient>
<linearGradient id="linear9" gradientUnits="userSpaceOnUse" x1="59.77" y1="594.95" x2="64.37" y2="603.88" gradientTransform="matrix(0.295104,0,0,-0.295945,0,188.537746)">
<stop offset="0" style="stop-color:rgb(44.705882%,54.117647%,77.254902%);stop-opacity:1;"/>
<stop offset="0.01" style="stop-color:rgb(46.27451%,55.294118%,78.039216%);stop-opacity:1;"/>
<stop offset="0.06" style="stop-color:rgb(47.058824%,56.078431%,78.431373%);stop-opacity:1;"/>
<stop offset="0.1" style="stop-color:rgb(47.843137%,56.862745%,78.823529%);stop-opacity:1;"/>
<stop offset="0.26" style="stop-color:rgb(54.117647%,61.176471%,81.568627%);stop-opacity:1;"/>
<stop offset="0.47" style="stop-color:rgb(60.784314%,66.27451%,83.921569%);stop-opacity:1;"/>
<stop offset="0.69" style="stop-color:rgb(68.627451%,72.156863%,87.058824%);stop-opacity:1;"/>
<stop offset="1" style="stop-color:rgb(78.039216%,79.215686%,90.588235%);stop-opacity:1;"/>
</linearGradient>
<radialGradient id="radial2" gradientUnits="userSpaceOnUse" cx="-312.63" cy="233.51" fx="-312.63" fy="233.51" r="1.09" gradientTransform="matrix(0.219305,0.198026,0.197463,-0.21993,41.471007,123.631078)">
<stop offset="0" style="stop-color:rgb(85.882353%,86.27451%,94.117647%);stop-opacity:1;"/>
<stop offset="0" style="stop-color:rgb(85.882353%,86.27451%,94.117647%);stop-opacity:1;"/>
<stop offset="0.06" style="stop-color:rgb(85.882353%,86.27451%,94.117647%);stop-opacity:1;"/>
<stop offset="0.1" style="stop-color:rgb(85.882353%,86.27451%,94.117647%);stop-opacity:1;"/>
<stop offset="0.47" style="stop-color:rgb(85.882353%,86.27451%,94.117647%);stop-opacity:1;"/>
<stop offset="1" style="stop-color:rgb(85.882353%,86.27451%,94.117647%);stop-opacity:1;"/>
</radialGradient>
<linearGradient id="linear10" gradientUnits="userSpaceOnUse" x1="57.41" y1="555.08" x2="62.02" y2="564.01" gradientTransform="matrix(0.295104,0,0,-0.295945,0,188.537746)">
<stop offset="0" style="stop-color:rgb(44.705882%,54.117647%,77.254902%);stop-opacity:1;"/>
<stop offset="0.01" style="stop-color:rgb(46.27451%,55.294118%,78.039216%);stop-opacity:1;"/>
<stop offset="0.06" style="stop-color:rgb(47.058824%,56.078431%,78.431373%);stop-opacity:1;"/>
<stop offset="0.1" style="stop-color:rgb(47.843137%,56.862745%,78.823529%);stop-opacity:1;"/>
<stop offset="0.26" style="stop-color:rgb(54.117647%,61.176471%,81.568627%);stop-opacity:1;"/>
<stop offset="0.47" style="stop-color:rgb(60.784314%,66.27451%,83.921569%);stop-opacity:1;"/>
<stop offset="0.69" style="stop-color:rgb(68.627451%,72.156863%,87.058824%);stop-opacity:1;"/>
<stop offset="1" style="stop-color:rgb(78.039216%,79.215686%,90.588235%);stop-opacity:1;"/>
</linearGradient>
<radialGradient id="radial3" gradientUnits="userSpaceOnUse" cx="-287.7" cy="202.31" fx="-287.7" fy="202.31" r="1.09" gradientTransform="matrix(0.219305,0.198026,0.197463,-0.21993,41.471007,123.631078)">
<stop offset="0" style="stop-color:rgb(85.882353%,86.27451%,94.117647%);stop-opacity:1;"/>
<stop offset="0" style="stop-color:rgb(85.882353%,86.27451%,94.117647%);stop-opacity:1;"/>
<stop offset="0.06" style="stop-color:rgb(85.882353%,86.27451%,94.117647%);stop-opacity:1;"/>
<stop offset="0.1" style="stop-color:rgb(85.882353%,86.27451%,94.117647%);stop-opacity:1;"/>
<stop offset="0.47" style="stop-color:rgb(85.882353%,86.27451%,94.117647%);stop-opacity:1;"/>
<stop offset="1" style="stop-color:rgb(85.882353%,86.27451%,94.117647%);stop-opacity:1;"/>
</radialGradient>
<linearGradient id="linear11" gradientUnits="userSpaceOnUse" x1="38.71" y1="581.83" x2="43.32" y2="590.76" gradientTransform="matrix(0.295104,0,0,-0.295945,0,188.537746)">
<stop offset="0" style="stop-color:rgb(44.705882%,54.117647%,77.254902%);stop-opacity:1;"/>
<stop offset="0.01" style="stop-color:rgb(46.27451%,55.294118%,78.039216%);stop-opacity:1;"/>
<stop offset="0.06" style="stop-color:rgb(47.058824%,56.078431%,78.431373%);stop-opacity:1;"/>
<stop offset="0.1" style="stop-color:rgb(47.843137%,56.862745%,78.823529%);stop-opacity:1;"/>
<stop offset="0.26" style="stop-color:rgb(54.117647%,61.176471%,81.568627%);stop-opacity:1;"/>
<stop offset="0.47" style="stop-color:rgb(60.784314%,66.27451%,83.921569%);stop-opacity:1;"/>
<stop offset="0.69" style="stop-color:rgb(68.627451%,72.156863%,87.058824%);stop-opacity:1;"/>
<stop offset="1" style="stop-color:rgb(78.039216%,79.215686%,90.588235%);stop-opacity:1;"/>
</linearGradient>
<radialGradient id="radial4" gradientUnits="userSpaceOnUse" cx="-319.5" cy="209.68" fx="-319.5" fy="209.68" r="1.09" gradientTransform="matrix(0.219305,0.198026,0.197463,-0.21993,41.471007,123.631078)">
<stop offset="0" style="stop-color:rgb(85.882353%,86.27451%,94.117647%);stop-opacity:1;"/>
<stop offset="0" style="stop-color:rgb(85.882353%,86.27451%,94.117647%);stop-opacity:1;"/>
<stop offset="0.06" style="stop-color:rgb(85.882353%,86.27451%,94.117647%);stop-opacity:1;"/>
<stop offset="0.1" style="stop-color:rgb(85.882353%,86.27451%,94.117647%);stop-opacity:1;"/>
<stop offset="0.47" style="stop-color:rgb(85.882353%,86.27451%,94.117647%);stop-opacity:1;"/>
<stop offset="1" style="stop-color:rgb(85.882353%,86.27451%,94.117647%);stop-opacity:1;"/>
</radialGradient>
</defs>
<g id="surface1">
<path style=" stroke:none;fill-rule:nonzero;fill:rgb(0%,0%,0%);fill-opacity:1;" d="M 32.355469 21.378906 L 32.355469 15.054688 L 35.570312 15.054688 L 35.570312 21.28125 C 35.570312 23.238281 36.382812 24.019531 37.730469 24.019531 C 39.082031 24.019531 39.878906 23.238281 39.878906 21.28125 L 39.878906 15.054688 L 43.046875 15.054688 L 43.046875 21.378906 C 43.046875 24.785156 41.0625 26.691406 37.699219 26.691406 C 34.335938 26.691406 32.351562 24.785156 32.351562 21.378906 Z M 32.355469 21.378906 "/>
<path style=" stroke:none;fill-rule:nonzero;fill:rgb(0%,0%,0%);fill-opacity:1;" d="M 54.457031 21.410156 L 54.457031 26.464844 L 51.367188 26.464844 L 51.367188 21.917969 C 51.367188 20.648438 50.816406 20.109375 49.921875 20.109375 C 48.929688 20.109375 48.167969 20.726562 48.167969 22.195312 L 48.167969 26.464844 L 45.082031 26.464844 L 45.082031 17.632812 L 48.023438 17.632812 L 48.023438 18.59375 C 48.722656 17.859375 49.714844 17.488281 50.816406 17.488281 C 52.878906 17.488281 54.457031 18.675781 54.457031 21.414062 Z M 54.457031 21.410156 "/>
<path style=" stroke:none;fill-rule:nonzero;fill:rgb(0%,0%,0%);fill-opacity:1;" d="M 56.050781 15.007812 C 56.050781 14.078125 56.796875 13.363281 57.933594 13.363281 C 59.074219 13.363281 59.820312 14.03125 59.820312 14.960938 C 59.820312 15.9375 59.074219 16.65625 57.933594 16.65625 C 56.796875 16.65625 56.050781 15.941406 56.050781 15.011719 Z M 56.390625 17.632812 L 59.476562 17.632812 L 59.476562 26.464844 L 56.390625 26.464844 Z M 56.390625 17.632812 "/>
<path style=" stroke:none;fill-rule:nonzero;fill:url(#linear0);" d="M 79.1875 15.054688 L 75.5 26.464844 L 72.054688 26.464844 L 69.878906 19.519531 L 67.601562 26.464844 L 64.160156 26.464844 L 60.46875 15.054688 L 63.785156 15.054688 L 66.074219 22.339844 L 68.480469 15.054688 L 71.4375 15.054688 L 73.726562 22.40625 L 76.113281 15.054688 Z M 79.1875 15.054688 "/>
<path style=" stroke:none;fill-rule:nonzero;fill:rgb(0%,0%,0%);fill-opacity:1;" d="M 79.789062 25.597656 L 80.566406 24.050781 C 81.332031 24.558594 82.5 24.914062 83.589844 24.914062 C 84.871094 24.914062 85.410156 24.558594 85.410156 23.953125 C 85.410156 22.289062 80.046875 23.855469 80.046875 20.382812 C 80.046875 18.738281 81.527344 17.660156 83.867188 17.660156 C 85.019531 17.660156 86.335938 17.941406 87.113281 18.410156 L 86.335938 19.957031 C 85.507812 19.46875 84.675781 19.308594 83.847656 19.308594 C 82.613281 19.308594 82.027344 19.714844 82.027344 20.285156 C 82.027344 22.046875 87.390625 20.480469 87.390625 23.886719 C 87.390625 25.515625 85.894531 26.574219 83.457031 26.574219 C 82.007812 26.574219 80.5625 26.152344 79.78125 25.597656 Z M 79.789062 25.597656 "/>
<path style=" stroke:none;fill-rule:nonzero;fill:rgb(0%,0%,0%);fill-opacity:1;" d="M 88.433594 22.113281 C 88.433594 19.503906 90.382812 17.664062 93.132812 17.664062 C 94.824219 17.664062 96.171875 18.367188 96.839844 19.6875 L 95.277344 20.597656 C 94.757812 19.765625 93.976562 19.394531 93.117188 19.394531 C 91.621094 19.394531 90.484375 20.433594 90.484375 22.117188 C 90.484375 23.796875 91.621094 24.839844 93.117188 24.839844 C 93.980469 24.839844 94.757812 24.460938 95.277344 23.632812 L 96.839844 24.542969 C 96.171875 25.847656 94.824219 26.578125 93.132812 26.578125 C 90.382812 26.578125 88.433594 24.71875 88.433594 22.113281 Z M 88.433594 22.113281 "/>
<path style=" stroke:none;fill-rule:nonzero;fill:rgb(0%,0%,0%);fill-opacity:1;" d="M 105.855469 21.363281 L 105.855469 26.464844 L 103.9375 26.464844 L 103.9375 25.402344 C 103.449219 26.152344 102.503906 26.574219 101.207031 26.574219 C 99.222656 26.574219 97.972656 25.484375 97.972656 23.96875 C 97.972656 22.453125 98.945312 21.375 101.582031 21.375 L 103.824219 21.375 L 103.824219 21.246094 C 103.824219 20.054688 103.109375 19.355469 101.664062 19.355469 C 100.691406 19.355469 99.679688 19.679688 99.03125 20.21875 L 98.234375 18.734375 C 99.160156 18.019531 100.507812 17.660156 101.910156 17.660156 C 104.410156 17.660156 105.855469 18.851562 105.855469 21.363281 Z M 103.824219 23.742188 L 103.824219 22.730469 L 101.726562 22.730469 C 100.347656 22.730469 99.972656 23.253906 99.972656 23.890625 C 99.972656 24.621094 100.589844 25.097656 101.632812 25.097656 C 102.671875 25.097656 103.484375 24.640625 103.824219 23.742188 Z M 103.824219 23.742188 "/>
<path style=" stroke:none;fill-rule:nonzero;fill:rgb(0%,0%,0%);fill-opacity:1;" d="M 117 21.476562 L 117 26.464844 L 114.96875 26.464844 L 114.96875 21.738281 C 114.96875 20.1875 114.207031 19.4375 112.90625 19.4375 C 111.460938 19.4375 110.484375 20.316406 110.484375 22.0625 L 110.484375 26.464844 L 108.453125 26.464844 L 108.453125 17.757812 L 110.386719 17.757812 L 110.386719 18.882812 C 111.054688 18.085938 112.109375 17.660156 113.375 17.660156 C 115.457031 17.660156 117 18.851562 117 21.476562 Z M 117 21.476562 "/>
<path style=" stroke:none;fill-rule:nonzero;fill:url(#linear1);" d="M 0 20.152344 L 12.050781 0.0117188 L 12.050781 15.054688 Z M 0 20.152344 "/>
<path style=" stroke:none;fill-rule:nonzero;fill:url(#linear2);" d="M 24.105469 20.152344 L 12.050781 0.0117188 L 12.050781 15.054688 Z M 24.105469 20.152344 "/>
<path style=" stroke:none;fill-rule:nonzero;fill:url(#linear3);" d="M 12.050781 15.007812 L 0 20.105469 L 12.050781 27.160156 Z M 12.050781 15.007812 "/>
<path style=" stroke:none;fill-rule:nonzero;fill:url(#linear4);" d="M 12.050781 15.007812 L 24.105469 20.105469 L 12.050781 27.160156 Z M 12.050781 15.007812 "/>
<path style=" stroke:none;fill-rule:nonzero;fill:url(#linear5);" d="M 0 22.464844 L 12.050781 39.988281 L 12.050781 29.523438 Z M 0 22.464844 "/>
<path style=" stroke:none;fill-rule:nonzero;fill:url(#linear6);" d="M 24.105469 22.464844 L 12.050781 39.988281 L 12.050781 29.523438 Z M 24.105469 22.464844 "/>
<path style="fill:none;stroke-width:4;stroke-linecap:butt;stroke-linejoin:miter;stroke:rgb(69.411765%,70.196078%,85.882353%);stroke-opacity:1;stroke-miterlimit:4;" d="M 18.836031 37.472129 L 21.046585 78.046596 " transform="matrix(0.295104,0,0,0.295945,0,0.0118714)"/>
<path style="fill:none;stroke-width:4;stroke-linecap:butt;stroke-linejoin:miter;stroke:rgb(69.411765%,70.196078%,85.882353%);stroke-opacity:1;stroke-miterlimit:4;" d="M 61.829306 37.472129 L 59.605516 78.046596 " transform="matrix(0.295104,0,0,0.295945,0,0.0118714)"/>
<path style="fill:none;stroke-width:4;stroke-linecap:butt;stroke-linejoin:miter;stroke:rgb(69.411765%,70.196078%,85.882353%);stroke-opacity:1;stroke-miterlimit:4;" d="M 40.901853 50.948554 L 21.059821 77.703416 " transform="matrix(0.295104,0,0,0.295945,0,0.0118714)"/>
<path style="fill:none;stroke-width:4;stroke-linecap:butt;stroke-linejoin:miter;stroke:rgb(69.411765%,70.196078%,85.882353%);stroke-opacity:1;stroke-miterlimit:4;" d="M 40.134116 50.948554 L 59.976148 77.703416 " transform="matrix(0.295104,0,0,0.295945,0,0.0118714)"/>
<path style=" stroke:none;fill-rule:nonzero;fill:url(#linear7);" d="M 7.070312 11.207031 C 7.070312 12.027344 6.40625 12.691406 5.589844 12.691406 C 4.769531 12.691406 4.109375 12.027344 4.109375 11.207031 C 4.109375 10.386719 4.769531 9.722656 5.589844 9.722656 C 6.40625 9.722656 7.070312 10.386719 7.070312 11.207031 Z M 7.070312 11.207031 "/>
<path style=" stroke:none;fill-rule:nonzero;fill:url(#radial0);" d="M 6.625 10.640625 C 6.546875 10.726562 6.339844 10.675781 6.171875 10.519531 C 6 10.359375 5.921875 10.164062 6 10.078125 C 6.078125 9.988281 6.28125 10.042969 6.453125 10.203125 C 6.628906 10.359375 6.703125 10.554688 6.625 10.640625 Z M 6.625 10.640625 "/>
<path style=" stroke:none;fill-rule:nonzero;fill:url(#linear8);" d="M 7.695312 23.007812 C 7.695312 23.828125 7.03125 24.492188 6.214844 24.492188 C 5.398438 24.492188 4.734375 23.828125 4.734375 23.007812 C 4.734375 22.1875 5.398438 21.519531 6.214844 21.519531 C 7.03125 21.519531 7.695312 22.1875 7.695312 23.007812 Z M 7.695312 23.007812 "/>
<path style=" stroke:none;fill-rule:nonzero;fill:url(#radial1);" d="M 7.25 22.441406 C 7.175781 22.527344 6.96875 22.472656 6.796875 22.316406 C 6.625 22.160156 6.546875 21.964844 6.625 21.875 C 6.703125 21.789062 6.910156 21.84375 7.078125 22 C 7.25 22.15625 7.328125 22.351562 7.25 22.441406 Z M 7.25 22.441406 "/>
<path style=" stroke:none;fill-rule:nonzero;fill:url(#linear9);" d="M 19.765625 11.207031 C 19.765625 12.027344 19.101562 12.691406 18.285156 12.691406 C 17.464844 12.691406 16.804688 12.027344 16.804688 11.207031 C 16.804688 10.386719 17.464844 9.722656 18.285156 9.722656 C 19.101562 9.722656 19.765625 10.386719 19.765625 11.207031 Z M 19.765625 11.207031 "/>
<path style=" stroke:none;fill-rule:nonzero;fill:url(#radial2);" d="M 19.320312 10.640625 C 19.242188 10.726562 19.039062 10.675781 18.867188 10.519531 C 18.695312 10.359375 18.617188 10.164062 18.695312 10.078125 C 18.773438 9.988281 18.976562 10.042969 19.148438 10.203125 C 19.320312 10.359375 19.398438 10.554688 19.320312 10.640625 Z M 19.320312 10.640625 "/>
<path style=" stroke:none;fill-rule:nonzero;fill:url(#linear10);" d="M 19.070312 23.007812 C 19.070312 23.828125 18.40625 24.492188 17.589844 24.492188 C 16.769531 24.492188 16.105469 23.828125 16.105469 23.007812 C 16.105469 22.1875 16.769531 21.519531 17.589844 21.519531 C 18.40625 21.519531 19.070312 22.1875 19.070312 23.007812 Z M 19.070312 23.007812 "/>
<path style=" stroke:none;fill-rule:nonzero;fill:url(#radial3);" d="M 18.628906 22.441406 C 18.550781 22.527344 18.34375 22.472656 18.171875 22.316406 C 18 22.160156 17.925781 21.964844 18 21.875 C 18.078125 21.789062 18.285156 21.84375 18.457031 22 C 18.628906 22.15625 18.707031 22.351562 18.628906 22.441406 Z M 18.628906 22.441406 "/>
<path style=" stroke:none;fill-rule:nonzero;fill:url(#linear11);" d="M 13.550781 15.089844 C 13.550781 15.910156 12.886719 16.574219 12.070312 16.574219 C 11.25 16.574219 10.589844 15.910156 10.589844 15.089844 C 10.589844 14.269531 11.25 13.605469 12.070312 13.605469 C 12.886719 13.605469 13.550781 14.269531 13.550781 15.089844 Z M 13.550781 15.089844 "/>
<path style=" stroke:none;fill-rule:nonzero;fill:url(#radial4);" d="M 13.109375 14.523438 C 13.03125 14.609375 12.824219 14.558594 12.652344 14.402344 C 12.484375 14.242188 12.40625 14.046875 12.484375 13.960938 C 12.558594 13.871094 12.765625 13.925781 12.9375 14.085938 C 13.109375 14.242188 13.1875 14.4375 13.109375 14.523438 Z M 13.109375 14.523438 "/>
</g>
</svg>
